<?xml version="1.0" encoding="utf-8"?>
<!-- Generator: Adobe Illustrator 16.0.0, SVG Export Plug-In . SVG Version: 6.00 Build 0)  -->
<!DOCTYPE svg PUBLIC "-//W3C//DTD SVG 1.1//EN" "http://www.w3.org/Graphics/SVG/1.1/DTD/svg11.dtd">
<svg version="1.1" id="Calque_1" xmlns="http://www.w3.org/2000/svg" xmlns:xlink="http://www.w3.org/1999/xlink" x="0px" y="0px"
	 width="671.792px" height="607.266px" viewBox="224.75 326.233 671.792 607.266"
	 enable-background="new 224.75 326.233 671.792 607.266" xml:space="preserve">
<g>
	<g>
		<path id="SVGID_1_" fill="#9290AD" d="M896.25,682.5c0,0,0.657,21.405,0,28.5c-0.657,7.092-3.9,20.858-5.25,28
			c-2.412,12.767-14.75,49.5-14.75,49.5l-16.46,35.029c0,0-12.085,21.429-16.79,27.971c-5.544,7.708-24.21,29.029-24.21,29.029
			L785.5,906.5c0,0-23.899,12.551-31.75,16c-8.19,3.599-24.76,7.456-34.5,9.5c-10.51,2.206-33.992,1.624-45.25,0.5
			c-13.167-1.314-52.335-7.91-52.335-7.91l-51.82-11.157l-90-15l-104.625-5.355c0,0-41.985-7.658-55.469-13.076
			c-11.76-4.726-36.439-16.269-47.25-24c-7.709-5.513-21.022-20.735-26.75-28.5c-5.522-7.485-16.5-36-16.5-36
			s-4.428-30.313-4.5-40.5c-0.083-11.679,4.5-46.5,4.5-46.5S253.234,629.293,263,605c5.58-13.879,18.822-42.198,29.713-65.088
			C301.8,520.816,309.25,505.5,309.25,505.5s17.359-39.582,24-51c2.95-5.073,9.969-20.354,15.75-28.5
			c9.127-12.862,18.645-24.949,23.5-29c11.286-9.417,25.534-21.193,37.75-28.5c14.534-8.693,46.646-20.563,63-25
			c21.977-5.962,66.5-16.438,89.25-16.438c22.369,0,37.099-2.958,60,2.305c8.682,1.995,13.604,5.77,30,10.133
			c9.232,2.457,23.802,12.826,31.5,17.5c6.301,3.826,20.351,15.498,25,21c8.698,10.293,30.25,40.5,30.25,40.5l21,28l23,34l25,37
			l17.213,19.82l15.787,18.18l26,33c0,0,18.329,36.791,22.25,49.5C892.829,648.791,896.25,682.5,896.25,682.5z"/>
	</g>
	<g>
		<defs>
			<path id="SVGID_2_" d="M896.25,682.5c0,0,0.657,21.405,0,28.5c-0.657,7.092-3.9,20.858-5.25,28
				c-2.412,12.767-14.75,49.5-14.75,49.5l-16.46,35.029c0,0-12.085,21.429-16.79,27.971c-5.544,7.708-24.21,29.029-24.21,29.029
				L785.5,906.5c0,0-23.899,12.551-31.75,16c-8.19,3.599-24.76,7.456-34.5,9.5c-10.51,2.206-33.992,1.624-45.25,0.5
				c-13.167-1.314-52.335-7.91-52.335-7.91l-51.82-11.157l-90-15l-104.625-5.355c0,0-41.985-7.658-55.469-13.076
				c-11.76-4.726-36.439-16.269-47.25-24c-7.709-5.513-21.022-20.735-26.75-28.5c-5.522-7.485-16.5-36-16.5-36
				s-4.428-30.313-4.5-40.5c-0.083-11.679,4.5-46.5,4.5-46.5S253.234,629.293,263,605c5.58-13.879,18.822-42.198,29.713-65.088
				C301.8,520.816,309.25,505.5,309.25,505.5s17.359-39.582,24-51c2.95-5.073,9.969-20.354,15.75-28.5
				c9.127-12.862,18.645-24.949,23.5-29c11.286-9.417,25.534-21.193,37.75-28.5c14.534-8.693,46.646-20.563,63-25
				c21.977-5.962,66.5-16.438,89.25-16.438c22.369,0,37.099-2.958,60,2.305c8.682,1.995,13.604,5.77,30,10.133
				c9.232,2.457,23.802,12.826,31.5,17.5c6.301,3.826,20.351,15.498,25,21c8.698,10.293,30.25,40.5,30.25,40.5l21,28l23,34l25,37
				l17.213,19.82l15.787,18.18l26,33c0,0,18.329,36.791,22.25,49.5C892.829,648.791,896.25,682.5,896.25,682.5z"/>
		</defs>
		<clipPath id="SVGID_3_">
			<use xlink:href="#SVGID_2_"  overflow="visible"/>
		</clipPath>
		<g transform="matrix(1 0 0 1 -1.525879e-005 -1.525879e-005)" clip-path="url(#SVGID_3_)">
			
				<image overflow="visible" enable-background="new    " width="462" height="462" xlink:href="background.png"  transform="matrix(1.684 0 0 1.658 171.5 235.498)">
			</image>
		</g>
	</g>
</g>
</svg>
