<?xml version="1.0" standalone="no"?>
<!DOCTYPE svg PUBLIC "-//W3C//DTD SVG 20010904//EN"
 "http://www.w3.org/TR/2001/REC-SVG-20010904/DTD/svg10.dtd">
<svg version="1.0" xmlns="http://www.w3.org/2000/svg"
 width="686.000000pt" height="686.000000pt" viewBox="0 0 686.000000 686.000000"
 preserveAspectRatio="xMidYMid meet">

<g transform="translate(0.000000,686.000000) scale(0.100000,-0.100000)"
fill="#000000" stroke="none">
<path d="M4835 6011 c-82 -34 -74 -146 12 -171 21 -7 79 -10 128 -8 l90 3 0
-116 0 -117 -60 -5 c-74 -7 -118 -15 -170 -29 -22 -6 -47 -13 -56 -14 -8 -2
-58 -21 -111 -42 -177 -71 -327 -170 -458 -302 -77 -78 -173 -203 -173 -226 0
-7 -4 -11 -8 -8 -8 4 -25 -35 -21 -48 1 -5 -2 -8 -8 -8 -23 0 -143 -301 -126
-317 3 -4 1 -12 -5 -19 -6 -8 -9 -21 -5 -29 3 -8 2 -15 -3 -15 -5 0 -11 -28
-15 -62 -3 -35 -9 -87 -12 -115 l-6 -53 -1602 -2 -1601 -3 -56 -26 c-61 -29
-142 -96 -133 -110 3 -5 1 -9 -5 -9 -16 0 -47 -68 -60 -130 -9 -41 -11 -368
-9 -1280 l3 -1225 32 -68 c22 -45 37 -66 44 -61 7 4 9 3 6 -4 -11 -16 79 -89
142 -114 l56 -23 2355 0 c2434 0 2411 0 2452 38 8 6 19 13 26 15 52 11 141
128 163 214 11 42 14 197 14 770 0 575 3 718 13 718 21 0 172 79 172 91 0 5 4
8 9 5 5 -3 20 5 34 18 14 13 27 22 30 20 5 -5 121 88 180 145 54 51 156 179
205 256 183 293 241 712 147 1073 -32 125 -141 362 -166 362 -6 0 -8 4 -5 8 6
10 -51 92 -63 92 -4 0 -8 7 -8 15 0 8 4 15 9 15 9 0 106 98 111 114 3 8 9 7
18 -1 22 -22 77 -16 104 12 27 27 30 41 15 80 -12 32 -119 147 -131 140 -8 -6
-24 13 -24 29 0 20 -56 50 -92 49 -28 -1 -43 -8 -60 -30 -32 -40 -29 -74 12
-123 34 -41 43 -56 27 -46 -12 7 -104 -88 -95 -98 5 -4 1 -6 -7 -4 -8 2 -23
13 -33 26 -31 37 -149 122 -160 115 -5 -3 -7 -2 -4 4 7 11 -104 77 -193 116
-149 66 -291 102 -407 106 l-43 1 0 118 0 117 89 -3 c101 -4 149 11 177 53 26
40 10 95 -36 117 -31 16 -68 18 -330 17 -162 0 -304 -4 -315 -8z m529 -617
c40 -7 107 -24 150 -38 101 -34 302 -137 319 -164 5 -7 13 -10 18 -6 5 3 8 1
7 -4 -4 -11 56 -62 73 -62 7 0 10 -2 7 -5 -3 -3 15 -27 40 -53 25 -26 51 -57
59 -69 9 -13 19 -20 24 -17 5 3 8 2 7 -3 -4 -12 68 -124 76 -118 3 3 4 2 2 -1
-2 -3 18 -51 44 -107 51 -109 100 -282 100 -353 0 -24 3 -44 8 -44 4 0 4 -60
0 -132 -11 -197 -12 -206 -20 -201 -5 2 -8 -7 -8 -20 0 -38 -46 -169 -90 -257
-22 -44 -38 -80 -36 -80 3 0 -8 -15 -25 -32 -16 -18 -29 -36 -29 -40 0 -5 0
-10 -1 -12 0 -3 -23 -28 -49 -57 -27 -29 -46 -57 -44 -61 3 -5 0 -7 -7 -6 -7
2 -13 -4 -14 -12 0 -8 -5 -15 -11 -15 -16 0 -84 -62 -76 -70 4 -4 3 -6 -3 -4
-18 4 -45 -13 -38 -24 3 -5 1 -7 -5 -3 -6 3 -16 0 -24 -7 -26 -26 -158 -99
-228 -126 -40 -16 -81 -38 -93 -50 l-22 -22 -5 -777 -5 -777 -23 -38 c-13 -20
-43 -48 -66 -62 l-43 -25 -2327 0 c-2129 0 -2331 1 -2362 16 -19 9 -43 27 -53
40 -10 13 -22 20 -26 16 -3 -4 -5 -2 -4 3 1 6 -3 28 -9 50 -9 30 -12 345 -12
1222 0 1132 1 1183 19 1225 22 50 43 71 94 93 32 13 224 15 1682 15 l1646 0
23 23 c22 22 23 33 29 188 7 195 22 260 102 435 18 39 44 89 59 112 14 23 25
42 23 42 -8 0 70 87 148 166 125 126 261 210 436 268 59 19 137 38 175 42 38
3 71 8 74 11 9 9 244 -1 314 -13z m816 -77 c0 -2 -12 -14 -27 -28 l-28 -24 24
28 c23 25 31 32 31 24z m-1940 -90 c0 -2 -12 -14 -27 -28 l-28 -24 24 28 c23
25 31 32 31 24z m1890 -1890 c0 -2 -19 -21 -42 -42 l-43 -40 40 43 c36 39 45
47 45 39z"/>
<path d="M5119 5191 c-25 -25 -29 -37 -29 -85 0 -34 5 -60 15 -69 8 -8 11 -17
8 -21 -3 -3 10 -13 30 -21 32 -13 41 -13 71 -1 45 19 56 42 56 114 0 49 -4 64
-25 86 -34 37 -87 36 -126 -3z"/>
<path d="M5620 4874 c-45 -30 -139 -127 -133 -137 3 -6 2 -7 -4 -4 -5 3 -67
-52 -139 -124 l-129 -129 -71 0 c-65 0 -76 -3 -120 -33 -58 -40 -104 -119
-104 -179 0 -54 20 -129 36 -135 8 -3 12 -9 9 -13 -10 -16 75 -79 129 -96 47
-15 63 -16 106 -6 67 15 126 56 156 108 31 53 42 152 22 208 l-13 38 180 177
c99 97 190 189 202 205 29 37 29 75 2 110 -16 21 -29 26 -63 26 -23 0 -53 -7
-66 -16z m-160 -167 c0 -1 -28 -29 -62 -62 l-63 -60 60 63 c55 58 65 67 65 59z
m-140 -140 c0 -2 -10 -12 -22 -23 l-23 -19 19 23 c18 21 26 27 26 19z m140
-92 c-41 -41 -77 -75 -79 -75 -3 0 28 34 69 75 41 41 77 75 79 75 3 0 -28 -34
-69 -75z m-275 -175 c4 -6 10 -8 14 -5 5 2 8 -18 8 -45 0 -48 0 -50 -34 -56
-60 -11 -97 52 -56 98 17 19 58 24 68 8z"/>
<path d="M6013 4342 c-27 -4 -73 -56 -73 -83 0 -29 27 -77 49 -89 47 -25 102
-7 127 42 18 34 12 89 -10 107 -19 16 -66 28 -93 23z"/>
<path d="M895 3831 c-11 -5 -29 -19 -40 -31 -19 -20 -20 -39 -23 -244 -4 -247
2 -275 61 -295 17 -6 116 -11 231 -11 284 0 276 -9 276 290 0 307 6 300 -292
299 -106 0 -202 -4 -213 -8z m334 -288 l-1 -123 -113 0 -114 0 -3 123 -3 122
118 0 118 0 -2 -122z"/>
<path d="M1660 3828 c-14 -7 -34 -31 -45 -53 -17 -35 -20 -64 -23 -224 -3
-155 -1 -192 14 -229 25 -67 45 -72 284 -72 287 0 281 -5 288 248 5 211 -1
264 -38 305 l-28 32 -214 3 c-158 2 -219 -1 -238 -10z m342 -283 l-3 -125
-115 0 -114 0 0 120 0 119 118 4 c64 1 117 4 117 5 0 1 -1 -54 -3 -123z"/>
<path d="M2443 3833 c-12 -2 -34 -18 -47 -34 l-26 -30 3 -229 2 -230 28 -27
27 -28 229 0 c257 0 261 1 281 74 15 56 13 405 -3 444 -26 61 -30 62 -261 63
-116 1 -221 0 -233 -3z m332 -291 l0 -122 -117 0 -117 0 -3 123 -3 122 120 0
120 0 0 -123z"/>
<path d="M3205 3826 c-53 -23 -59 -50 -63 -276 -2 -181 -1 -209 15 -240 30
-58 43 -61 290 -58 l223 3 27 28 28 27 3 218 c2 192 1 221 -15 252 -10 19 -29
40 -43 47 -36 18 -424 17 -465 -1z m350 -281 l0 -125 -117 0 -118 0 0 120 0
119 118 4 c64 1 117 4 117 5 0 1 0 -54 0 -123z"/>
<path d="M3973 3824 c-52 -26 -58 -56 -58 -279 0 -304 -8 -295 288 -295 113 0
216 4 230 9 13 5 32 22 43 38 17 25 19 47 19 238 0 314 9 305 -292 305 -159 0
-204 -4 -230 -16z m352 -281 l0 -123 -112 0 -112 0 -3 123 -3 122 115 0 115 0
0 -122z"/>
<path d="M1293 3033 c-31 -6 -70 -48 -77 -84 -3 -18 -6 -116 -6 -220 0 -288 1
-289 289 -289 104 0 192 5 212 11 36 12 72 46 64 59 -3 5 1 10 7 12 10 4 13
54 13 209 0 311 7 303 -280 305 -110 1 -210 0 -222 -3z m319 -293 l-3 -120
-115 0 -114 0 0 120 0 120 118 0 117 0 -3 -120z"/>
<path d="M2064 3033 c-12 -2 -34 -18 -50 -34 l-29 -30 -2 -213 c-3 -318 -5
-316 295 -316 299 0 292 -8 292 309 0 175 -3 212 -15 225 -9 8 -14 19 -13 23
2 4 -13 16 -32 25 -30 15 -63 18 -230 17 -107 -1 -205 -4 -216 -6z m493 -180
c-3 -10 -5 -4 -5 12 0 17 2 24 5 18 2 -7 2 -21 0 -30z m-167 -113 l0 -120
-115 0 -115 0 0 120 0 120 115 0 115 0 0 -120z m167 8 c-3 -7 -5 -2 -5 12 0
14 2 19 5 13 2 -7 2 -19 0 -25z m0 -85 c-3 -10 -5 -4 -5 12 0 17 2 24 5 18 2
-7 2 -21 0 -30z"/>
<path d="M2830 3027 c-64 -23 -74 -55 -78 -270 -4 -160 -2 -194 13 -233 28
-74 41 -79 260 -82 309 -5 308 -6 314 271 3 211 -4 259 -45 298 -25 24 -29 24
-227 26 -140 2 -213 -1 -237 -10z m330 -287 l0 -120 -115 0 -116 0 2 120 1
120 114 0 114 0 0 -120z"/>
<path d="M3600 3027 c-21 -8 -42 -25 -55 -47 -18 -32 -20 -51 -20 -235 0 -172
2 -205 18 -236 30 -61 45 -64 282 -64 292 0 285 -8 285 302 0 293 0 293 -287
292 -118 0 -201 -5 -223 -12z m330 -287 l0 -120 -115 0 -115 0 0 120 0 120
115 0 115 0 0 -120z"/>
<path d="M4350 3022 c-60 -29 -65 -52 -65 -282 0 -302 -3 -299 295 -299 296 0
290 -7 290 302 0 304 7 297 -292 297 -164 0 -198 -3 -228 -18z m350 -282 l0
-120 -120 0 -120 0 0 120 0 120 120 0 120 0 0 -120z"/>
<path d="M1727 2210 c-38 -30 -50 -103 -45 -299 4 -190 15 -226 78 -248 26 -9
341 -12 1273 -12 1328 -1 1276 -3 1322 49 19 21 20 36 20 247 l0 225 -33 29
-32 29 -1279 0 c-1267 0 -1279 0 -1304 -20z m2485 -262 l-3 -108 -1177 -2
-1177 -3 0 110 0 110 1180 0 1180 0 -3 -107z"/>
</g>
</svg>
